// =============================================
// Schema Completo Atualizado - dbdiagram.io
// =============================================

Table users_profile {
  id uuid [pk, default: `gen_random_uuid()`]
  nome text
  telefone varchar [not null]
  imagem text
  descricao text
  redes_sociais jsonb [default: '{}']
  is_admin boolean [default: false]
  is_master boolean [default: false]
  primeiro_acesso [default: true]
  email text [not null]
}

Table livros {
  id bigint [pk, increment]
  ISBN text [not null]
  direitos_de_publicacao boolean [not null]
  conteudo_por_IA boolean [not null]
  imagens_explicitas boolean [not null]
  numero_edicao smallint
  data_de_publicacao date [not null]
  preco_digital numeric [not null]
  preco_fisico numeric [not null]
  titulo text [not null]
  subtitulo text [not null]
  descricao text [not null]
  autor_nome text [not null]
  autor_sobrenome text [not null]
  ativo boolean [default: true, not null]
  estado varchar [default: 'rascunho', not null]
  idioma text [not null]
  manuscrito text
  colaboradores jsonb [default: '[]']
  capa jsonb [default: '{}']
  fk_user_profile_id uuid [ref: > users_profile.id, not null]
  total_paginas numeric [not null]
  categoria text [not null]
}

Table comentarios {
  id bigint [pk, increment]
  data timestamp [default: `now()`, not null]
  texto text [not null]
  fk_user_profile_id uuid [ref: > users_profile.id, not null]
  fk_livros_id bigint [ref: > livros.id, not null]
}

Table enderecos {
  id bigint [pk, increment]
  estado varchar [not null]
  bairro text [not null]
  rua text [not null]
  num integer [not null]
  cep varchar [not null]
  cidade text [not null]
  complemento text
  fk_user_profile_id uuid [ref: > users_profile.id, not null]
}

Table met_pagamentos {
  id bigint [pk, increment]
  nome text [not null]
}

Table usuarios_cartoes {
  id bigint [pk, increment]
  token_pagamento text
  final_cartao varchar [not null]
  bandeira_varchar varchar [not null]
  nome_no_cartao text [not null]
  data_expiracao varchar [not null]
  fk_user_profile_id uuid [ref: > users_profile.id, not null]
}

Table vendas {
  id bigint [pk, increment]
  data timestamp [default: `now()`, not null]
  total numeric [not null]
  transacao_id text [not null]
  status_pagamento text [not null]
  endereco_entrega jsonb [not null]
  fk_met_pagamentos_id bigint [ref: > met_pagamentos.id, not null]
  fk_user_profile_id uuid [ref: > users_profile.id, not null]
}

Table itens_venda {
  id bigint [pk, increment]
  qtd bigint [not null]
  formato text [not null]
  subtotal numeric [not null]
  fk_livros_itens_id bigint [ref: > livros.id, not null]
  fk_vendas_id bigint [ref: > vendas.id, not null]
}

Table revisoes {
  id bigint [pk, increment]
  arquivo text [not null]
  data timestamp [default: `now()`, not null]
  apontamento text
  fk_user_profile_id uuid [ref: > users_profile.id, not null]
  fk_livro_id bigint [ref: > livros.id, not null]
}

Table notificacoes {
  id bigint [pk, increment]
  titulo text [not null]
  texto text [not null]
  tipo text [not null]
  data timestamp [default: `now()`, not null]
  ADM boolean [default: false, not null]
  metadados jsonb [default: '{}']
  fk_user_profile_id uuid [ref: > users_profile.id, not null]
}

Table notificacoes_lidas {
  id bigint [pk, increment]
  data_leitura timestamp [default: `now()`, not null]
  fk_notificacao_id bigint [ref: > notificacoes.id, not null]
  fk_user_profile_id uuid [ref: > users_profile.id, not null]
}
